<!DOCTYPE svg PUBLIC "-//W3C//DTD SVG 1.1//EN" "http://www.w3.org/Graphics/SVG/1.1/DTD/svg11.dtd">
<!-- Uploaded to: SVG Repo, www.svgrepo.com, Transformed by: SVG Repo Mixer Tools -->
<svg fill="#ffffff" width="64px" height="64px" viewBox="0 0 1000 1000" xmlns="http://www.w3.org/2000/svg" stroke="#ffffff">
<g id="SVGRepo_bgCarrier" stroke-width="0"/>
<g id="SVGRepo_tracerCarrier" stroke-linecap="round" stroke-linejoin="round"/>
<g id="SVGRepo_iconCarrier">
<path d="M738 756q-45-77-131-205-6-8-14-15-2-2-1.5-4.5t2.5-3.5q60-29 97-83 40-58 40-124 0-63-31-116t-84-84-116-31-116 31-84 84-31 116q0 66 40 124 37 54 97 83 2 1 2.5 3.5T407 536q-8 7-14 15-88 130-131 205-18 32-18 52 0 27 34.5 50.5t93 37.5T500 910t128.5-14 93-37.5T756 808q0-21-18-52z"/>
</g>
</svg>